<?xml version="1.0" standalone="no"?><!DOCTYPE svg PUBLIC "-//W3C//DTD SVG 1.1//EN" "http://www.w3.org/Graphics/SVG/1.1/DTD/svg11.dtd"><svg t="1699262129748" class="icon" viewBox="0 0 1024 1024" version="1.1" xmlns="http://www.w3.org/2000/svg" p-id="3678" xmlns:xlink="http://www.w3.org/1999/xlink" width="200" height="200"><path d="M1012.736 267.264l-256-256a38.912 38.912 0 0 0-27.136-11.264H153.6a153.6 153.6 0 0 0-153.6 153.6v716.8a153.6 153.6 0 0 0 153.6 153.6h716.8a153.6 153.6 0 0 0 153.6-153.6V295.424a37.376 37.376 0 0 0-11.264-28.16zM768 131.072L892.928 256H768zM947.2 870.4a76.8 76.8 0 0 1-76.8 76.8H153.6A76.8 76.8 0 0 1 76.8 870.4V153.6A76.8 76.8 0 0 1 153.6 76.8h536.576v218.624a37.888 37.888 0 0 0 38.4 38.4h218.624z" fill="#4B8EE6" p-id="3679"></path><path d="M243.2 780.8a38.4 38.4 0 0 1 0-76.8h256a37.888 37.888 0 0 1 38.4 38.4 38.4 38.4 0 0 1-38.4 38.4h-256zM243.2 550.4a38.4 38.4 0 0 1 0-76.8h512a38.4 38.4 0 0 1 0 76.8z" fill="#2EA7E0" p-id="3680"></path><path d="M499.2 320h-256a38.4 38.4 0 0 1 0-76.8h256a38.4 38.4 0 0 1 0 76.8z" fill="#2EA7E0" p-id="3681"></path></svg>